<svg xmlns="http://www.w3.org/2000/svg" viewBox="0 0 478.31 499.23"><defs><style>.cls-1{fill:#e26464;}.cls-2{fill:#ff7373;}</style></defs><title>Asset 5</title><g id="Layer_2" data-name="Layer 2"><g id="Layer_1-2" data-name="Layer 1"><g id="coralLogo"><path class="cls-1" d="M104.67,92.46c1.69,19.49-2.83,37.58-11,55.17-6.29,13.45-8.47,27.79-7.63,42.78,1.12,20.11,1.81,40.25,7.35,59.76a57.58,57.58,0,0,0,6.8,15.43c7.59,11.73,20.2,11.73,28.22.31,6.07-8.65,8.51-18.65,10.3-28.88,3.6-20.65-1.72-40.32-6.48-60-3.8-15.76-6.68-31.58-5.5-47.88.71-9.86,2.7-19.46,7.79-28.11,4.53-7.7,10.74-13.12,20.15-13.73,7.55-.48,12.81,2.54,16,9.39,4.84,10.23,4.61,21.07,3,31.84-1.86,12.47-4.74,24.8-6.52,37.29-2.25,15.76-1.22,31.5,1.44,47.21,3.3,19.49,7.44,38.9,6.75,58.87a36.43,36.43,0,0,0,.74,5.92c.64,4.7,1.27,9.52,7,10.82a12.67,12.67,0,0,0,14.24-7.69c1.81-4.72,3.35-10,3.14-14.94-.49-11.6-2.21-23.14-3.25-34.73-1-10.74-1.88-21.5-2.43-32.27a26.49,26.49,0,0,1,1.72-9.22c2.5-7.64,8.8-10.34,16.24-7.22,10.32,4.33,14.42,13.08,15.4,23.31,1.42,14.9,2.18,29.86,3,44.8.59,9.93,1.18,19.88,1.21,29.83,0,8.9-4.31,16.19-9.93,22.85-6.41,7.61-14,14.51-16.84,24.49a60.67,60.67,0,0,0-2.32,14.66c-.18,5.8,3.72,9.62,9.5,10.25,9.11,1,16.94-2.34,23-8.68,15.7-16.37,28-34.79,31.28-57.88,2.26-15.81.07-31.41-5.05-46.26-9.41-27.33-19.87-54.3-29.82-81.45-4.87-13.28-9.86-26.62-8.49-41.14.88-9.37,3.81-18,12.17-23.51,9-5.94,18.38-3.19,22.23,7a61.36,61.36,0,0,1,3.9,17.86c.85,14.48,1.76,28.9,6.25,42.79A58.28,58.28,0,0,0,274,173.55c2.28,3.77,5.87,6.12,10.56,4.92,4.42-1.14,5.78-5.12,6-8.91.5-8.78.58-17.59.49-26.38-.19-19.12-2-38.3,2.63-57.18,1.77-7.24,4.54-14.13,10.93-18.48,8.62-5.85,19.56-7.3,25.61,5.73,4.64,10,7.51,20.52,7.6,31.31.14,16.77-.16,33.66-2.05,50.3-1.77,15.53-9.79,28.67-20.21,40.46C307.2,204.75,303,216,304.9,228.91c1.47,10,6.58,17.52,16.21,20.21,9.39,2.62,18.17-.64,25.3-7.26,8.57-8,12.25-18.49,14.17-29.63,4.36-25.3,4-50.8,1.1-76.14-2.29-19.77-6.48-39.31-9.37-59A66.11,66.11,0,0,1,352,58.18c2.47-17,24.22-29.07,40.41-23,6.48,2.42,10,6.36,9,13.19-1.52,10.3-4.21,20.43-6.69,30.56-2.66,10.82-6.15,21.47-3.61,32.87,1.77,8,6.87,13.11,13.66,16.89,3.39,1.89,6.11.24,8.48-2.13,5-5,6.24-11.59,7.41-18.16,3-17,5.61-34.09,9.09-51,2.29-11.1,12-13.88,20.07-5.68,12.58,12.74,16.87,28.39,13.06,45.9a102.46,102.46,0,0,1-15.4,36.06c-2.95,4.32-6.45,9-10.85,11.45-12.82,7.18-20.19,18.05-24.16,31.64-5,17.07-9.86,34.17-14.49,51.33-.54,2,.77,4.47,1.23,6.73,2.44-.57,5.95-.31,7.15-1.86,5.16-6.65,10.33-13.46,14.19-20.9,5.13-9.86,8.56-20.6,13.64-30.48a91,91,0,0,1,12.79-18.32c6.71-7.57,15.66-8.2,24.84-5.24,4.46,1.45,6.12,5.26,6.43,9.77.71,10.11-2.45,19.46-6.12,28.55-12.49,31-28.89,59.93-47.92,87.33-7.58,10.93-18.84,17.75-30.52,23.65-18.7,9.44-38.35,17.2-55.06,30.21-14.37,11.2-26.88,24.11-32.68,41.87-3.65,11.17-2.11,22.78-.21,34.13,2.47,14.74,5.49,29.39,7.86,44.15a60.3,60.3,0,0,1,.38,15.42c-1,10.19-6.37,17.13-16.51,20.28-15.11,4.69-30.36,7.58-46.17,4.67-11-2-15.86-7.89-15.55-19,.33-12,1.74-23.95,1.61-35.91a85.55,85.55,0,0,0-3.42-22.56c-4.72-16.46-16.34-26.1-32.66-30.53-7.53-2-15-4.26-22.41-6.8a40,40,0,0,1-20.72-16.5c-2.18-3.35-4.62-6.56-6.45-10.1-8-15.5-21.11-24.43-37.34-29.51-4.28-1.34-8.41-3.2-12.71-4.48-20-6-31.9-20-39.2-38.87-6-15.51-8.19-31.79-10.79-48-1.86-11.63-3.85-23.28-6.55-34.74-2.82-12-11.63-20.34-19.52-29.13-2.56-2.85-5-5.81-7.73-8.5C2.21,147.84-2,128.88.83,107.78,3,91.76,6.08,75.9,12.76,61.08A86.7,86.7,0,0,1,22.42,45.5C25.46,41.38,30,40.2,35,42c5.18,1.87,8,5.57,8.44,11.22.79,10.89-3.84,20.45-7.33,30.27-4,11.3-6.51,22.75-3.78,34.72,1.94,8.52,6.26,15.24,15.6,16.75,7.84,1.27,15-.93,19-8a40.34,40.34,0,0,0,4.61-16C72.75,93.59,68,76.92,65.25,60c-2.23-13.57-3.9-27.23-5.39-40.9-.35-3.16.63-6.64,1.67-9.74C64.45.7,72.13-2.27,80.32,1.8S92.85,13.08,95,21.14a312.48,312.48,0,0,1,7.89,38.43C104.4,70.41,104.15,81.48,104.67,92.46Zm222,25.18c0-7.83.34-14.85-.12-21.82a54.94,54.94,0,0,0-2.88-15.07,11.76,11.76,0,0,0-6.53-6.46c-3.86-1.23-5.64,2.6-7,5.68-5.24,11.72-7.12,24.26-7.82,36.88-.64,11.27.12,22.62-.2,33.91-.3,10.39-2.3,20.52-7.12,29.85-5.73,11.1-17.35,13-25.77,3.66a43.69,43.69,0,0,1-8.13-14.12c-4.43-12.14-5.23-24.93-5.65-37.8a141,141,0,0,0-3-24.13c-.5-2.41-4-5.56-6.41-5.81s-6,2.2-7.35,4.49c-2,3.43-3.51,7.79-3.38,11.69.6,19.37,6.35,37.68,13.76,55.33,9.34,22.27,18,44.73,23.46,68.29,3.72,15.93,6.27,31.94,3.17,48.4-4.35,23.11-16.44,41.91-32.17,58.7a35.92,35.92,0,0,1-29.58,11.82c-9.61-.55-17.36-6.13-18.72-15.57-2.28-15.71,0-30.65,11.7-42.64,4.92-5.05,8.51-10.73,9.88-17.57,1.27-6.33,2.68-12.79,2.7-19.19.06-17.14-.46-34.29-1.07-51.43a46.52,46.52,0,0,0-2.52-14.14c-.8-2.19-4.24-3.42-6.48-5.08-1.27,1.93-3.56,3.81-3.63,5.77a86,86,0,0,0,.89,16.89c2.65,16.52,3.84,33.06,1.45,49.68-1.46,10.13-3.79,20-12.3,27-11.17,9.15-21.92,5.94-26.05-7.79a27.7,27.7,0,0,1-1.15-5.84c-.53-7-.48-14-1.41-20.89-2.39-17.61-5.6-35.11-7.71-52.75-3.12-26-4.56-52,.81-78a76.33,76.33,0,0,0,1.07-18.87c-.12-2.7-2-6.68-4.17-7.56s-6.21.76-8.15,2.63a24.41,24.41,0,0,0-6.29,9.92c-5.7,18.55-7.39,37.33-3.07,56.58,5.43,24.23,9.5,48.67,6.44,73.67-1.42,11.55-4.3,22.6-12.74,31.28-9.84,10.13-27.64,12.31-37.79-2-1.92-2.7-4.16-5.37-5.3-8.41-4.64-12.41-9.94-24.71-13.1-37.51-7.27-29.5-6-58.61,6.31-87,3.94-9.06,7.49-18.68,8.89-28.38C94.91,97,91.81,79.85,89.26,62.9c-2-13.3-4.31-26.55-6.62-39.8A33.52,33.52,0,0,0,80.26,16c-1.11-2.59-3-5.15-6-3.73-1.78.85-3.13,3.5-3.76,5.61s-.16,4.31.19,6.43C73.33,40.21,76.56,56,78.59,72a290.84,290.84,0,0,1,2.35,38.22c-.06,9.6-3.85,18.48-10.19,26-11.21,13.35-28.66,16.16-40.71-.83-8.6-12.12-9.67-25.38-6.79-39.08,2.19-10.36,6-20.37,8.85-30.6a51.4,51.4,0,0,0,1.47-9.82,3.48,3.48,0,0,0-1.76-2.55c-.51-.27-1.94.43-2.46,1.09a50.2,50.2,0,0,0-4.89,6.91c-9.53,17.21-13,36.07-15.38,55.34-1.75,14.54,2.71,27,11.76,37.94,6.56,7.94,13.53,15.57,20.67,23,6.85,7.13,12.06,14.93,13.8,24.88,2.86,16.35,5.7,32.72,9,49,7,34.78,25.92,59.53,61.06,69.35,15.58,4.36,26.38,13.74,33.73,27.55,7.8,14.66,20.07,23.14,35.77,27.23,11,2.86,21.76,6.18,31.36,12.53,9.91,6.57,17.41,14.72,19.59,27a170.31,170.31,0,0,1,.59,57.11c-1.55,9.6.72,14.09,10.67,15,7.83.73,15.87,0,23.75-.73,9.5-.89,15.38-6.8,16.68-15.94A157,157,0,0,0,299,442.88c-.69-19.26-2.68-38.49-3.15-57.75-.26-10.87,3-21.25,8.64-30.86C313.79,338.54,326.9,327.06,343,319c14.44-7.17,29.24-13.65,43.76-20.67,12.27-5.94,23.78-13.21,31.27-24.94,16.95-26.53,32.88-53.66,44.55-83a66.63,66.63,0,0,0,3.94-15.83c.57-4.4-2.46-6.36-6.76-4.89-2.13.73-4.56,1.83-5.86,3.52A140.88,140.88,0,0,0,442.43,190c-7.53,13.49-14,27.62-22.09,40.72-4,6.42-10.14,11.95-16.37,16.4-7.78,5.57-14,1.74-14.21-7.76a25.16,25.16,0,0,1,.55-6.43c4.68-19,9.6-38,14.17-57,3.7-15.38,10-28.83,24.25-37.42a16.19,16.19,0,0,0,5.73-6.75c4.86-10.38,9.75-20.78,13.77-31.49a46.06,46.06,0,0,0,.53-30.4c-.65-2.07-2.94-3.63-4.47-5.42-1.64,1.66-4.23,3.07-4.75,5-2.14,8-3.68,16.16-5.36,24.29-2,9.57-3.17,19.37-6,28.68-2.53,8.34-8.59,14.26-17.75,15.67S386.8,128,384.71,117.52a108.43,108.43,0,0,1,1.26-49,57,57,0,0,0,2-15.72c-.26-8-4.35-9.92-11.32-6.13-11.09,6-14.75,13.77-12.82,28.65,1.56,12,4.3,23.85,6.32,35.8,4,23.73,4.64,47.67,4.18,71.67-.34,17.7-3.9,34.68-11.77,50.59-6,12.19-14.45,22-28,26.09-10.63,3.17-20.66,2.34-28.47-6.37-16.84-18.83-10.81-49.9.86-62.27a63.6,63.6,0,0,0,13.81-22.32C326.73,151.77,327.13,134.34,326.65,117.64Z"/><path class="cls-2" d="M326.65,117.64c.48,16.7.08,34.13-6,50.91a63.6,63.6,0,0,1-13.81,22.32c-11.67,12.37-17.7,43.44-.86,62.27,7.81,8.71,17.84,9.54,28.47,6.37,13.6-4.07,22-13.9,28-26.09,7.87-15.91,11.43-32.89,11.77-50.59.46-24-.19-47.94-4.18-71.67-2-12-4.76-23.79-6.32-35.8-1.93-14.88,1.73-22.63,12.82-28.65,7-3.79,11.06-1.83,11.32,6.13a57,57,0,0,1-2,15.72,108.43,108.43,0,0,0-1.26,49C386.8,128,401.29,139.44,410.43,138s15.22-7.33,17.75-15.67c2.83-9.31,4-19.11,6-28.68,1.68-8.13,3.22-16.29,5.36-24.29.52-2,3.11-3.37,4.75-5,1.53,1.79,3.82,3.35,4.47,5.42a46.06,46.06,0,0,1-.53,30.4c-4,10.71-8.91,21.11-13.77,31.49a16.19,16.19,0,0,1-5.73,6.75c-14.23,8.59-20.55,22-24.25,37.42-4.57,19-9.49,38-14.17,57a25.16,25.16,0,0,0-.55,6.43c.2,9.5,6.43,13.33,14.21,7.76,6.23-4.45,12.39-10,16.37-16.4,8.12-13.1,14.56-27.23,22.09-40.72a140.88,140.88,0,0,1,11.51-16.75c1.3-1.69,3.73-2.79,5.86-3.52,4.3-1.47,7.33.49,6.76,4.89a66.63,66.63,0,0,1-3.94,15.83c-11.67,29.36-27.6,56.49-44.55,83-7.49,11.73-19,19-31.27,24.94-14.52,7-29.32,13.5-43.76,20.67-16.14,8-29.25,19.5-38.52,35.23-5.66,9.61-8.9,20-8.64,30.86.47,19.26,2.46,38.49,3.15,57.75a157,157,0,0,1-1.54,27.74c-1.3,9.14-7.18,15.05-16.68,15.94-7.88.74-15.92,1.46-23.75.73-9.95-.94-12.22-5.43-10.67-15a170.31,170.31,0,0,0-.59-57.11c-2.18-12.29-9.68-20.44-19.59-27-9.6-6.35-20.37-9.67-31.36-12.53-15.7-4.09-28-12.57-35.77-27.23-7.35-13.81-18.15-23.19-33.73-27.55-35.14-9.82-54-34.57-61.06-69.35-3.28-16.27-6.12-32.64-9-49-1.74-10-7-17.75-13.8-24.88-7.14-7.43-14.11-15.06-20.67-23-9-11-13.51-23.4-11.76-37.94,2.33-19.27,5.85-38.13,15.38-55.34a50.2,50.2,0,0,1,4.89-6.91c.52-.66,1.95-1.36,2.46-1.09a3.48,3.48,0,0,1,1.76,2.55A51.4,51.4,0,0,1,32.1,65.7c-2.86,10.23-6.66,20.24-8.85,30.6-2.88,13.7-1.81,27,6.79,39.08,12.05,17,29.5,14.18,40.71.83,6.34-7.54,10.13-16.42,10.19-26A290.84,290.84,0,0,0,78.59,72c-2-16-5.26-31.76-7.9-47.64-.35-2.12-.77-4.47-.19-6.43s2-4.76,3.76-5.61c3-1.42,4.89,1.14,6,3.73a33.52,33.52,0,0,1,2.38,7.08C85,36.35,87.26,49.6,89.26,62.9,91.81,79.85,94.91,97,92.43,114c-1.4,9.7-5,19.32-8.89,28.38-12.33,28.35-13.58,57.46-6.31,87,3.16,12.8,8.46,25.1,13.1,37.51,1.14,3,3.38,5.71,5.3,8.41,10.15,14.26,28,12.08,37.79,2,8.44-8.68,11.32-19.73,12.74-31.28,3.06-25-1-49.44-6.44-73.67-4.32-19.25-2.63-38,3.07-56.58a24.41,24.41,0,0,1,6.29-9.92c1.94-1.87,6.06-3.48,8.15-2.63s4.05,4.86,4.17,7.56a76.33,76.33,0,0,1-1.07,18.87c-5.37,26-3.93,52-.81,78,2.11,17.64,5.32,35.14,7.71,52.75.93,6.9.88,13.93,1.41,20.89a27.7,27.7,0,0,0,1.15,5.84c4.13,13.73,14.88,16.94,26.05,7.79,8.51-7,10.84-16.89,12.3-27,2.39-16.62,1.2-33.16-1.45-49.68a86,86,0,0,1-.89-16.89c.07-2,2.36-3.84,3.63-5.77,2.24,1.66,5.68,2.89,6.48,5.08a46.52,46.52,0,0,1,2.52,14.14c.61,17.14,1.13,34.29,1.07,51.43,0,6.4-1.43,12.86-2.7,19.19-1.37,6.84-5,12.52-9.88,17.57-11.67,12-14,26.93-11.7,42.64,1.36,9.44,9.11,15,18.72,15.57a35.92,35.92,0,0,0,29.58-11.82c15.73-16.79,27.82-35.59,32.17-58.7,3.1-16.46.55-32.47-3.17-48.4-5.5-23.56-14.12-46-23.46-68.29-7.41-17.65-13.16-36-13.76-55.33-.13-3.9,1.39-8.26,3.38-11.69,1.33-2.29,5-4.73,7.35-4.49s5.91,3.4,6.41,5.81a141,141,0,0,1,3,24.13c.42,12.87,1.22,25.66,5.65,37.8a43.69,43.69,0,0,0,8.13,14.12c8.42,9.31,20,7.44,25.77-3.66,4.82-9.33,6.82-19.46,7.12-29.85.32-11.29-.44-22.64.2-33.91.7-12.62,2.58-25.16,7.82-36.88,1.38-3.08,3.16-6.91,7-5.68a11.76,11.76,0,0,1,6.53,6.46,54.94,54.94,0,0,1,2.88,15.07C327,102.79,326.65,109.81,326.65,117.64Z"/></g></g></g></svg>